With: Diane Lane, Sandra Oh en Vincent Riotta

After Frances's seemingly happy San Francisco marriage ends abruptly, she goes into a funk. Urged by her friends to move on, she joins a bus tour of Tuscany where, on the spur of the moment, she buys a crumbling villa. She assembles a crew of oddballs and immigrants to repair the house; over the next year, as they work, she welcomes one of her New York friends who's pregnant and at loose ends, and she seeks love, first (tenuously) with her married real estate agent, then with a charming stranger. Although life gets in the way of love, Frances's wishes come true in unexpected ways, and there's always the Tuscan sun. 

General:

Complete name                    : Klambake\Under the Tuscan Sun\Under.avi
Format                           : AVI
Format/Info                      : Audio Video Interleave
File size                        : 1.76 GiB
Duration                         : 1h 48mn
Overall bit rate                 : 2 333 Kbps

Video:

Format                           : MPEG-4 Visual
Format profile                   : Simple@L3
Format settings, BVOP            : No
Format settings, QPel            : No
Format settings, GMC             : No warppoints
Format settings, Matrix          : Default (H.263)
Codec ID                         : XVID
Codec ID/Hint                    : XviD
Duration                         : 1h 48mn
Bit rate                         : 1 874 Kbps
Width                            : 720 pixels
Height                           : 400 pixels
Display aspect ratio             : 16:9
Frame rate                       : 25.000 fps
Color space                      : YUV
Chroma subsampling               : 4:2:0
Bit depth                        : 8 bits
Scan type                        : Progressive
Bits/(Pixel*Frame)               : 0.260
Stream size                      : 1.41 GiB (80%)
Writing library                  : XviD 1.1.2 (UTC 2006-11-01)

Audio:

Format                           : AC-3
Format/Info                      : Audio Coding 3
Mode extension                   : CM (complete main)
Codec ID                         : 2000
Duration                         : 1h 48mn
Bit rate mode                    : Constant
Bit rate                         : 448 Kbps
Channel(s)                       : 6 channels
Channel positions                : Front: L C R, Side: L R, LFE
Sampling rate                    : 48.0 KHz
Stream size                      : 346 MiB (19%)
Alignment                        : Aligned on interleaves
Interleave, duration             : 32 ms (0.80 video frame)
Interleave, preload duration     : 288 ms
